<?xml version="1.0" encoding="utf-8"?>
<!-- Generator: Adobe Illustrator 26.5.0, SVG Export Plug-In . SVG Version: 6.00 Build 0)  -->
<svg version="1.1" id="Layer_1" xmlns="http://www.w3.org/2000/svg" xmlns:xlink="http://www.w3.org/1999/xlink" x="0px" y="0px"
	 viewBox="0 0 388.9 335.6" style="enable-background:new 0 0 388.9 335.6;" xml:space="preserve">
<g>
	<path d="M134.1,195.6H129v10h5.1c4.9,0,7.3-1.8,7.3-5.2S139.1,195.6,134.1,195.6z"/>
	<path d="M252.6,178.6h-0.3c-1,4.6-2.1,9.9-3.2,14.2l-0.7,2.8h8.1l-0.7-2.8C254.8,188.5,253.7,183.1,252.6,178.6z"/>
	<path d="M372.8,242.9c-0.1,0.1-0.3,0.1-0.5,0.1l-16.3-0.7l-36.5-3.1c-9.7-1.6-16.9-9.9-17.1-19.8l-2.1-112.6
		C298.9,46.7,249-0.9,189,0.5C129.3,1.9,81.9,51.1,82.7,110.8l2.1,112.6c0.2,9.9-6.7,18.5-16.3,20.5l-36.3,4.5L16,249.8
		c-9,0.1-16.3,7.4-16.2,16.4c0.1,9,7.4,16.3,16.4,16.2c0.2,0,0.3,0,0.5,0l16.3,0.8l48.8,2.1c5.3-0.1,10.3-2.3,14.1-6l17-17.7
		l16.9-17c4.1-3.8,10.5-3.6,14.3,0.5c1.5,1.6,2.5,3.7,2.7,5.9c0.3,2.3-0.3,4.7-1.6,6.6l-0.2,0.3l-29.4,37.7L105,308
		c-6.4,6.3-6.4,16.7-0.1,23.1c6.3,6.4,16.7,6.4,23.1,0.1c0.2-0.2,0.4-0.4,0.5-0.6l12.1-10.9l45.1-41.4l2.1-2
		c1.8-1.7,4.2-2.7,6.8-2.8c2.5-0.1,5,0.8,6.9,2.6l2.2,1.9l46.6,39.7l12.5,10.5c6.5,6.2,16.8,6,23.1-0.5c6.2-6.5,6-16.8-0.5-23.1
		l-11-12L243.7,256l-0.2-0.3c-1.3-2-1.9-4.3-1.8-6.6c0.3-5,4.2-9.1,9.2-9.5c2.7-0.2,5.4,0.6,7.5,2.4l17.5,16.4l17.7,17
		c3.9,3.6,9,5.6,14.3,5.5l48.7-3.9l16.2-1.5c9,0,16.3-7.3,16.3-16.3S381.8,242.9,372.8,242.9z M134.9,214.6H117v-45h16.5
		c9.6,0,17.3,2.4,17.3,11.2c0,3.9-2.2,8.3-5.8,9.7v0.3c4.3,1.3,7.9,4.6,7.9,10.6C152.9,210.6,144.7,214.6,134.9,214.6z M127.5,125.3
		l-8.1-4.8c-9.7-5.9-9.9-14.5-0.4-20.7c11.3-7.3,22.5-14.6,33.8-21.8c6.8-4.3,12.8-3.6,16.5,1.8c3.8,5.6,2,11.7-4.8,16.2
		c-6.6,4.4-13.4,8.7-21,13.6c7.8,4.7,14.5,8.7,21.3,12.7c6.8,4,8.4,10,5,15.7c-3.3,5.5-9.6,6.5-16.3,2.6
		C144.8,135.6,136.2,130.5,127.5,125.3z M189,179.6h-18v7h15v10h-15v8h18v10h-30v-45h30V179.6z M217.7,95.5
		c-3.5-2.2-5.7-5.2-5.9-9.6c-0.1-8.2,8.1-14,15.2-9.7c13.5,8.1,26.7,16.6,39.6,25.5c4.5,3.2,5.6,9.4,2.4,13.9
		c-0.8,1.2-1.8,2.2-3.1,2.9c-12.9,8.1-26,15.8-39.1,23.3c-5.1,2.9-11,0.9-14-3.9c-3.1-4.8-1.8-11.2,3-14.3c0.1-0.1,0.3-0.2,0.4-0.2
		c7.3-4.6,14.9-8.9,23.1-13.8C231.7,104.6,224.7,100,217.7,95.5z M231,179.6h-12v35h-12v-35h-12v-10h36V179.6z M260.9,214.6l-2.3-10
		h-12.2l-2.3,10h-12.2l13.5-45h14.4l13.7,45H260.9z"/>
	<path d="M139.3,182.7c0-3-1.9-4.1-6-4.1H129v9h4.2C137.4,187.6,139.3,185.7,139.3,182.7z"/>
</g>
</svg>
