<svg width="472" height="472" viewBox="0 0 409 472" fill="none" xmlns="http://www.w3.org/2000/svg">
<path d="M283.05 310.707C279.047 309.36 278.638 303.778 283.244 301.563C365.388 262.228 359.985 173.393 359.985 173.393C359.576 83.1681 294.072 -0.497334 188.142 0.00222588C70.3073 0.566946 -0.513821 94.0932 0.00280722 204.691C0.906906 398.26 147.392 472.217 193.071 472L192.727 395.111C192.662 382.817 192.597 373.326 200.132 373.326C200.132 373.326 247.317 421.023 299.69 420.784C381.296 420.393 409 351.454 409 351.454L283.072 310.707H283.05ZM188.68 251.65C147.005 251.846 113.08 217.919 112.886 175.869C112.692 133.819 146.316 99.5884 187.969 99.3929C229.644 99.1975 263.569 133.124 263.763 175.152C263.957 217.202 230.333 251.433 188.68 251.628" fill="#C5C5C5"/>
</svg>
