<svg width="268" height="302" viewBox="0 0 268 302" fill="none" xmlns="http://www.w3.org/2000/svg">
<path d="M122.447 159.95C97.61 160.067 77.3917 139.851 77.2762 114.795C77.1608 89.7386 97.1994 69.3416 122.023 69.2251C146.86 69.1087 167.078 89.3245 167.194 114.368C167.309 139.424 147.27 159.821 122.447 159.937M178.688 195.14C176.302 194.338 176.058 191.012 178.804 189.692C227.759 166.253 224.539 113.319 224.539 113.319C224.295 59.5573 185.257 9.70365 122.126 10.0013C51.9007 10.3378 9.69378 66.0672 10.0017 131.969C10.5405 247.311 97.8409 291.379 125.064 291.25L124.858 245.434C124.82 238.109 124.781 232.453 129.272 232.453C129.272 232.453 157.392 260.874 188.605 260.732C237.239 260.499 253.75 219.42 253.75 219.42L178.701 195.14H178.688Z" stroke="white" stroke-width="20" stroke-miterlimit="1.74345"/>
</svg>
